<?xml version="1.0" standalone="no"?>
<!DOCTYPE svg PUBLIC "-//W3C//DTD SVG 20010904//EN" "http://www.w3.org/TR/2001/REC-SVG-20010904/DTD/svg10.dtd">
<svg version="1.1" xmlns="http://www.w3.org/2000/svg" width="450" height="300" viewBox="0 0 454.000000 314.000000">

  <title>Logo</title>
  <defs>
    <linearGradient id="gradient" x1="0.18" y1="0.88" x2="0.82" y2="0.12">
      <stop offset="0%" stop-color="#6dfef7" />
      <stop offset="4.58%" stop-color="#36f9f8" />
      <stop offset="9.17%" stop-color="#36f1f7" />
      <stop offset="13.75%" stop-color="#36e8f5" />
      <stop offset="18.33%" stop-color="#36e0f4" />
      <stop offset="22.92%" stop-color="#35d8f2" />
      <stop offset="27.5%" stop-color="#34cff0" />
      <stop offset="32.08%" stop-color="#34c7ef" />
      <stop offset="36.67%" stop-color="#33bfee" />
      <stop offset="41.25%" stop-color="#32b6ed" />
      <stop offset="45.83%" stop-color="#32aeee" />
      <stop offset="55%" stop-color="#319bf5" />
      <stop offset="58.25%" stop-color="#2e94f0" />
      <stop offset="61.5%" stop-color="#2b8eea" />
      <stop offset="64.75%" stop-color="#2887e5" />
      <stop offset="68%" stop-color="#2580e0" />
      <stop offset="71.25%" stop-color="#227adb" />
      <stop offset="74.5%" stop-color="#1f73d6" />
      <stop offset="77.75%" stop-color="#1d6dd2" />
      <stop offset="81%" stop-color="#1a66cd" />
      <stop offset="84.25%" stop-color="#175fc9" />
      <stop offset="87.5%" stop-color="#1558c5" />
      <stop offset="94%" stop-color="#104abe" />
    </linearGradient>
  </defs>

  <g transform="translate(0.000000,314.000000) scale(0.100000,-0.100000)" fill="url(#gradient)" stroke="none" filter=" drop-shadow(rgba(0, 0, 0, 0.25) 2px 3px 2px)">
    <path pointer-events="all" d="M2070 3044 c-101 -20 -124 -26 -135 -34 -5 -3 -30 -12 -55 -19 -213
-62 -428 -224 -595 -446 -52 -69 -145 -251 -145 -282 0 -12 -4 -24 -9 -27 -9
-6 -17 -44 -28 -126 -3 -25 -10 -51 -15 -57 -7 -9 -45 -13 -121 -13 -61 0
-124 -4 -141 -9 -17 -5 -51 -15 -76 -22 -53 -14 -196 -82 -260 -123 -51 -33
-210 -191 -210 -208 0 -6 -6 -19 -14 -27 -12 -14 -42 -66 -74 -127 -19 -36
-47 -108 -57 -144 -41 -149 -43 -345 -5 -500 5 -19 14 -57 21 -85 15 -62 43
-119 80 -165 16 -19 29 -39 29 -45 1 -5 15 -27 33 -47 31 -35 36 -37 162 -60
109 -19 163 -23 330 -22 147 0 216 5 260 16 99 26 238 78 278 104 21 14 52 33
70 43 99 57 175 108 264 178 226 178 304 246 418 362 66 68 136 137 155 155
19 17 96 92 170 166 134 134 265 249 370 324 30 22 96 69 145 106 50 36 104
72 120 80 17 8 48 26 70 41 44 29 180 98 235 119 70 27 98 76 71 128 -15 28
-51 111 -51 118 0 9 -59 94 -107 154 -16 19 -42 53 -58 75 -36 50 -123 134
-195 189 -86 65 -270 166 -303 166 -7 0 -17 4 -23 8 -15 14 -134 45 -235 61
-87 14 -287 12 -369 -5z" />
    <path pointer-events="all" d="M3485 1988 c-22 -6 -49 -14 -60 -18 -11 -5 -38 -14 -60 -21 -73 -21
-241 -108 -316 -163 -177 -129 -203 -153 -678 -622 -218 -214 -418 -411 -446
-436 -115 -104 -384 -290 -495 -340 -155 -70 -184 -81 -265 -99 -33 -7 -82
-21 -110 -31 -27 -10 -71 -18 -97 -18 -26 0 -69 -4 -95 -10 -26 -5 -70 -11
-98 -12 -81 -5 -73 -45 19 -94 21 -12 79 -18 215 -25 227 -11 815 -24 1006
-22 77 0 289 1 472 2 272 0 341 3 385 16 84 25 131 55 194 126 163 181 336
291 536 339 91 22 103 23 185 11 154 -23 281 -72 317 -122 17 -24 70 -59 90
-59 46 0 139 159 162 277 22 116 9 162 -70 255 -110 129 -180 181 -271 200
-130 27 -323 32 -395 8 -14 -4 -45 -14 -70 -21 -125 -37 -382 -209 -610 -408
-112 -98 -125 -108 -195 -161 -33 -24 -91 -70 -130 -101 -86 -68 -138 -99
-171 -99 -40 0 -29 35 42 130 143 192 308 371 439 477 44 35 87 70 96 77 9 7
45 33 80 57 35 23 75 54 89 66 14 13 41 31 60 40 19 10 37 20 40 23 29 34 221
119 300 131 30 5 84 14 120 21 74 13 256 16 315 4 93 -18 206 -78 259 -137 41
-45 106 -157 106 -182 0 -7 9 -22 18 -35 17 -22 19 -22 33 -6 11 13 13 46 12
148 -2 71 -7 134 -13 140 -5 5 -10 23 -10 40 0 36 -24 115 -51 168 -5 10 -9
22 -9 28 0 15 -83 150 -92 150 -4 0 -8 6 -8 13 0 19 -127 139 -195 185 -67 45
-128 73 -195 92 -25 7 -55 16 -68 21 -30 12 -266 9 -317 -3z" />
    <path pointer-events="all" d="M3615 360 c-64 -9 -162 -42 -217 -73 -57 -32 -178 -111 -200 -131
-23 -20 -23 -27 3 -55 21 -22 22 -23 268 -18 l246 4 110 39 c63 23 122 51 138
66 27 25 28 29 15 55 -8 18 -33 38 -68 55 -111 54 -201 72 -295 58z" />
  </g>
</svg>