<svg width="800" height="400" xmlns="http://www.w3.org/2000/svg" version="1.1">
 <title>cloud</title>
 <g id="Layer_1">
  <title>Layer 1</title>
  <g>

   <g>
    <g/>
    <g/>
    <g filter=" drop-shadow(rgba(0, 0, 0, 0.25) 2px 3px 2px)">
     <path pointer-events="all" stroke-miterlimit="10" stroke-linejoin="round" stroke="#6c8ebf" fill="#fdffff" d="m99.91875,278.08c-29.79,10.64 -63.3,1.14 -82.33,-23.33c-19.03,-24.47 -19.03,-58.07 0,-82.54c19.03,-24.46 52.54,-33.96 82.33,-23.33c-0.24,-43.09 27.35,-81.8 69.22,-97.14c41.88,-15.33 89.25,-4.09 118.89,28.23c19.04,-45.8 65.16,-75.83 116.45,-75.83c51.29,0 97.42,30.03 116.45,75.83c30.45,-26.39 73.84,-33.83 111.9,-19.2c38.05,14.64 64.14,48.81 67.26,88.11c29.79,-10.63 63.3,-1.13 82.33,23.33c19.02,24.47 19.02,58.07 0,82.54c-19.03,24.47 -52.54,33.97 -82.33,23.33c-3.25,41.54 -32.1,77.15 -73.2,90.32c-41.1,13.17 -86.4,1.34 -114.91,-30.02c-22.68,36.28 -63.48,58.48 -107.5,58.48c-44.02,0 -84.82,-22.2 -107.49,-58.48c-21.64,41.86 -83.31,62.3 -137.73,45.65c-54.42,-16.65 -80.99,-64.08 -59.34,-105.95z"/>
    </g>
    <g>
     <ellipse pointer-events="all" fill="#319bf5" ry="29.10304" rx="17.60956" cy="146.98" cx="342.32875"/>
    </g>
    <g>
     <ellipse pointer-events="all" fill="#319bf5" ry="29.10304" rx="17.60956" cy="146.98" cx="450.58875"/>
    </g>
    <g>
     <path pointer-events="stroke" stroke-miterlimit="10" stroke-width="7" stroke="#319bf5" fill="none" d="m312.31875,270.84q78.27,-50.09 168.27,1.35"/>
    </g>
    <g filter=" drop-shadow(rgba(0, 0, 0, 0.25) 2px 3px 2px)">
     <path pointer-events="all" fill="#6c8ebf" d="m477.97875,180.14l9.28,27.72c0.34,1 0.51,2.05 0.51,3.11c0,2.59 -1.03,5.08 -2.87,6.92c-1.83,1.83 -4.32,2.86 -6.92,2.86c-5.4,0 -9.78,-4.38 -9.78,-9.78c0,-1.06 0.17,-2.11 0.51,-3.11l9.27,-27.72z"/>
    </g>
    <g/>
   </g>
  </g>
 </g>

</svg>